<?xml version="1.0" encoding="UTF-8"?>
<svg id="_圖層_1" data-name="圖層 1" xmlns="http://www.w3.org/2000/svg" viewBox="0 0 192 192">
  <defs>
    <style>
      .cls-1 {
        fill: #33291f;
      }

      .cls-1, .cls-2, .cls-3 {
        stroke-width: 0px;
      }

      .cls-2 {
        fill: #c1832e;
      }

      .cls-3 {
        fill: #faf5ec;
      }
    </style>
  </defs>
  <rect class="cls-3" y="0" width="192" height="192"/>
  <g>
    <circle class="cls-2" cx="41" cy="96.7" r="30"/>
    <path class="cls-1" d="M91.5,65.2l50-30c4.5-3,5.5-9.5,2.5-14-3-4-8.5-5.5-13-3l-50,30c-4.5,3-5.5,9.5-2.5,14,3,4,8.5,5.5,13,3Z"/>
    <path class="cls-1" d="M101,106.72h70c5.5,0,10-4.5,10-10s-4.5-10-10-10h-70c-5.5,0-10,4.5-10,10s4.5,10,10,10Z"/>
    <path class="cls-2" d="M81.86,147.01l48.14,26.74c5.35,2.67,11.77,1.07,14.44-4.28,2.67-5.35,1.07-11.77-4.28-14.44h0l-48.14-26.74c-5.35-2.67-11.77-1.07-14.44,4.28-2.67,5.35-1.07,11.77,4.28,14.44Z"/>
  </g>
</svg>